<svg width="512" height="512" viewBox="0 0 512 512" fill="none" xmlns="http://www.w3.org/2000/svg">
  <g clip-path="url(#clip0_410_88)">
    <path d="M256 512C397.385 512 512 397.385 512 256C512 114.615 397.385 0 256 0C114.615 0 0 114.615 0 256C0 397.385 114.615 512 256 512Z" fill="#0091E2"/>
    <path d="M413.65 230.75C412.85 230.1 405.6 224.65 390.3 224.65C386.25 224.65 382.2 224.95 378.2 225.7C375.25 205.35 358.45 195.45 357.7 195L353.6 192.6L350.9 196.5C347.5 201.75 345.05 207.5 343.6 213.6C340.85 225.2 342.5 236.1 348.4 245.4C341.3 249.35 329.85 250.35 327.55 250.4H138.5C133.55 250.4 129.55 254.4 129.55 259.35C129.35 275.9 132.15 292.35 137.8 307.9C144.3 325 154 337.55 166.6 345.25C180.7 353.9 203.65 358.85 229.7 358.85C241.45 358.9 253.2 357.8 264.75 355.65C280.8 352.7 296.25 347.1 310.45 339.05C322.15 332.25 332.7 323.65 341.65 313.5C356.6 296.55 365.55 277.65 372.2 260.9H374.85C391.25 260.9 401.35 254.35 406.9 248.85C410.6 245.35 413.5 241.1 415.35 236.35L416.5 232.9L413.65 230.75ZM156 244.95H181.35C182.55 244.95 183.55 243.95 183.55 242.75V220.2C183.55 219 182.55 218 181.35 217.95H156C154.8 217.95 153.8 218.95 153.8 220.15V242.75C153.8 244 154.8 244.95 156 244.95ZM190.95 244.95H216.3C217.5 244.95 218.5 243.95 218.5 242.75V220.2C218.5 219 217.5 218 216.3 217.95H190.95C189.7 217.95 188.7 218.95 188.7 220.2V242.75C188.7 244 189.7 244.95 190.95 244.95ZM226.35 245H251.7C252.9 245 253.9 244 253.9 242.8V220.25C253.9 219.05 252.9 218.05 251.7 218H226.35C225.15 218 224.15 219 224.15 220.2V242.8C224.15 244 225.15 244.95 226.35 245ZM261.4 245H286.75C287.95 245 288.95 244 289 242.8V220.25C289 219 288 218 286.75 218H261.4C260.2 218 259.2 219 259.2 220.2V242.8C259.2 244 260.15 245 261.4 245ZM190.9 212.5H216.25C217.45 212.5 218.45 211.5 218.45 210.25V187.7C218.45 186.5 217.45 185.5 216.25 185.5H190.9C189.65 185.5 188.7 186.5 188.65 187.7V210.25C188.7 211.5 189.7 212.5 190.9 212.5ZM226.35 212.5H251.7C252.9 212.5 253.9 211.5 253.9 210.25V187.7C253.9 186.5 252.9 185.5 251.7 185.5H226.35C225.15 185.5 224.15 186.5 224.15 187.7V210.25C224.15 211.5 225.15 212.5 226.35 212.5ZM261.4 212.5H286.75C288 212.5 288.95 211.5 289 210.25V187.7C289 186.45 288 185.5 286.75 185.5H261.4C260.2 185.5 259.2 186.5 259.2 187.7V210.25C259.2 211.5 260.15 212.5 261.4 212.5ZM261.4 180.05H286.75C288 180.05 289 179.05 289 177.8V155.2C289 154 288 153 286.75 153H261.4C260.2 153 259.2 154 259.2 155.2V177.8C259.2 179.05 260.15 180.05 261.4 180.05ZM296.7 245H322.05C323.25 245 324.25 244 324.25 242.8V220.25C324.25 219 323.25 218.05 322.05 218H296.7C295.5 218 294.5 219 294.5 220.2V242.8C294.5 244 295.5 245 296.7 245Z" fill="white"/>
  </g>
  <defs>
    <clipPath id="clip0_410_88">
      <rect width="512" height="512" fill="white"/>
    </clipPath>
  </defs>
</svg>