<svg width="512" height="512" viewBox="0 0 512 512" fill="none" xmlns="http://www.w3.org/2000/svg">
  <g clip-path="url(#clip0_409_2)">
    <path d="M512 256C512 397.385 397.385 512 256 512C125.555 512 17.899 414.438 2.027 288.298C0.69 277.723 0 266.94 0 256C0 235.959 2.299 216.451 6.656 197.736C33.029 84.428 134.656 0 256 0C377.041 0 478.469 84.01 505.135 196.901C508.635 211.665 510.84 226.921 511.645 242.542C511.885 247.003 512 251.486 512 256Z" fill="#F2F2F2"/>
    <path d="M106 266.9V137L218.5 201.95V245.25L143.5 201.95V288.55L106 266.9Z" fill="#00B0FF"/>
    <path d="M218.5 201.95L331 137V266.9L256 310.2L218.5 288.55L293.5 245.25V201.95L218.5 245.25V201.95Z" fill="#0081CB"/>
    <path d="M218.5 288.55V331.85L293.5 375.15V331.85L218.5 288.55Z" fill="#00B0FF"/>
    <path d="M293.5 375.15L406 310.2V223.6L368.5 245.25V288.55L293.5 331.85V375.15ZM368.5 201.95V158.65L406 137V180.3L368.5 201.95Z" fill="#0081CB"/>
  </g>
  <defs>
    <clipPath id="clip0_409_2">
      <rect width="512" height="512" fill="white"/>
    </clipPath>
  </defs>
</svg>
